<svg width="480" height="80" viewBox="0 0 480 80" fill="none" xmlns="http://www.w3.org/2000/svg">
  <rect x="4" y="12" width="56" height="56" rx="12" fill="#FF9900"/>
  <path d="M22 48V32h6.2c3.4 0 5.7.7 7 2.1 1.3 1.4 2 3.3 2 5.7s-.7 4.3-2 5.7c-1.3 1.4-3.6 2.1-7 2.1H22zm5.2-4.4h1.2c1.5 0 2.6-.3 3.2-1 .7-.6 1-1.6 1-2.9s-.3-2.3-1-2.9c-.6-.7-1.7-1-3.2-1h-1.2v7.8zM41.5 48l5.4-16h5.8l5.4 16h-5.5l-.9-2.9h-5.8l-.9 2.9h-5.5zm8.3-6.8h3.6l-1.8-5.7-1.8 5.7z" fill="#111"/>
  <text x="76" y="52" font-family="ui-sans-serif, system-ui, -apple-system, Segoe UI, sans-serif" font-size="28" font-weight="700" fill="#F9FAFB">SmartScout API</text>
</svg>
